# xmcd CD database file
#
# Track frame offsets:
#	150
#	73216
#	106810
#	145712
#	172298
#	198700
#	238346
#
# Disc length: 3580 seconds
#
# Revision: 0
# Processed by: cddbd v1.5.2PL0 Copyright (c) Steve Scherf et al.
# Submitted via: CDex 1.51
#
DISCID=6e0dfa07
DTITLE=Andrey Klimkovsky - Dedicated to Crew of Challenger
DYEAR=1998
DGENRE=New Age
TTITLE0=Challenger
TTITLE1=Leave-taking
TTITLE2=Requiem
TTITLE3=Finally
TTITLE4=Little piece
TTITLE5=New SpaceMission
TTITLE6=FullMoon Night
EXTD=YEAR: 1998
EXTT0=
EXTT1=
EXTT2=
EXTT3=
EXTT4=
EXTT5=
EXTT6=
PLAYORDER=
